<?xml version="1.0" standalone="no"?>
<!DOCTYPE svg PUBLIC "-//W3C//DTD SVG 20010904//EN"
 "http://www.w3.org/TR/2001/REC-SVG-20010904/DTD/svg10.dtd">
<svg version="1.0" xmlns="http://www.w3.org/2000/svg"
 width="750.000000pt" height="750.000000pt" viewBox="0 0 750.000000 750.000000"
 preserveAspectRatio="xMidYMid meet">

<g transform="translate(0.000000,750.000000) scale(0.100000,-0.100000)"
fill="#ffffff" stroke="none">
<path d="M3643 6470 c-13 -5 -56 -34 -97 -65 -82 -62 -115 -74 -279 -106 -79
-15 -131 -19 -177 -15 -76 7 -228 -8 -320 -30 -85 -21 -327 -133 -537 -249
-93 -51 -181 -99 -198 -108 -16 -9 -91 -45 -165 -80 -74 -35 -186 -98 -248
-140 -111 -75 -242 -182 -242 -197 0 -14 68 7 117 36 26 15 73 44 103 64 213
141 1014 549 1183 602 62 20 94 23 237 23 l165 0 110 -39 c60 -21 154 -60 210
-86 55 -26 141 -61 190 -78 138 -48 157 -57 242 -120 43 -33 131 -90 196 -127
104 -60 116 -69 100 -80 -12 -9 -17 -27 -18 -59 0 -25 -2 -46 -4 -46 -21 0
-160 85 -216 132 -108 92 -186 134 -330 179 -71 23 -212 68 -312 100 -180 59
-273 80 -273 63 0 -11 138 -95 195 -119 22 -9 132 -39 245 -66 233 -57 268
-71 400 -161 52 -35 149 -92 215 -126 66 -33 132 -69 147 -79 24 -16 25 -20
12 -38 -8 -10 -12 -27 -8 -37 6 -22 -9 -24 -26 -4 -6 8 -28 20 -48 27 -20 6
-64 25 -97 42 -33 17 -118 47 -190 68 -71 20 -209 64 -305 97 -250 86 -455
124 -467 85 -5 -13 41 -28 212 -73 66 -17 213 -63 327 -101 113 -38 213 -69
222 -69 8 0 57 -13 108 -30 51 -16 119 -37 150 -45 52 -15 57 -18 48 -35 -17
-32 -11 -60 18 -90 26 -26 45 -33 137 -55 l30 -7 -25 -10 c-16 -6 -62 -5 -133
3 -108 13 -109 13 -104 38 6 33 -7 67 -31 80 -19 10 -153 31 -337 52 -49 5
-142 21 -205 34 -308 64 -508 81 -542 47 -22 -22 10 -32 112 -32 120 0 198
-12 382 -55 95 -23 185 -38 256 -42 l111 -6 -16 -23 c-17 -27 -10 -75 13 -95
9 -7 43 -18 77 -24 l62 -12 -47 -8 c-80 -12 -364 1 -588 29 -240 30 -288 29
-440 -11 -299 -79 -278 -76 -600 -77 -403 -1 -406 -2 -587 -231 -159 -200
-257 -302 -326 -336 -76 -39 -243 -94 -332 -111 -66 -12 -68 -13 -35 -20 45
-10 185 16 264 48 33 13 63 24 67 24 15 0 -6 -48 -53 -118 -72 -107 -88 -146
-88 -223 0 -135 63 -266 158 -329 48 -31 52 -37 52 -72 0 -94 133 -293 251
-376 38 -27 89 -55 113 -62 34 -9 57 -26 99 -74 111 -126 339 -252 629 -347
100 -33 204 -72 232 -86 96 -48 221 -140 264 -194 115 -142 182 -401 169 -658
-4 -84 -11 -123 -35 -188 -23 -65 -27 -83 -16 -87 19 -7 40 27 72 116 25 68
27 84 27 243 0 169 -2 187 -46 356 -51 200 -209 478 -356 628 -47 47 -70 78
-64 84 14 14 58 12 77 -4 30 -24 73 -95 109 -180 33 -78 36 -81 30 -39 -8 62
-65 180 -109 223 -45 46 -72 47 -143 7 -51 -29 -96 -37 -119 -22 -6 4 -18 21
-27 37 -49 96 -22 185 56 185 55 0 55 42 0 101 l-24 26 23 39 c25 43 26 62 17
584 -4 218 -3 228 23 330 27 105 127 326 248 545 27 50 56 110 63 135 12 42
16 46 57 57 62 16 144 15 281 -2 133 -16 523 -19 601 -5 28 6 72 23 99 40 l48
29 46 -20 c35 -16 69 -21 134 -21 l87 -1 54 -65 c33 -40 47 -62 35 -57 -138
59 -257 61 -402 9 -36 -13 -43 -20 -43 -42 1 -81 14 -85 156 -48 175 46 257
43 352 -11 36 -21 50 -37 77 -96 53 -115 53 -115 3 -106 -24 4 -56 11 -73 16
-16 6 -39 9 -50 7 -11 -2 -42 -6 -70 -10 -56 -6 -154 -41 -171 -60 -5 -7 -23
-16 -40 -20 -46 -11 -51 -17 -19 -26 20 -5 50 0 102 17 104 35 146 33 252 -15
49 -22 102 -40 118 -40 28 0 32 -5 52 -58 11 -32 45 -103 76 -158 69 -125 99
-200 119 -297 25 -121 23 -142 -22 -172 -20 -13 -92 -47 -159 -74 -67 -27
-141 -63 -165 -80 -24 -17 -66 -47 -95 -65 -28 -19 -54 -44 -58 -55 -15 -48
44 -161 83 -161 24 0 132 -34 132 -41 0 -4 -35 -12 -77 -18 -43 -6 -101 -23
-131 -36 -47 -22 -63 -24 -125 -19 -56 5 -91 2 -158 -15 -74 -18 -94 -20 -135
-11 -27 7 -78 12 -114 12 -151 1 -252 -45 -289 -132 -21 -49 -22 -50 -67 -50
-100 0 -163 -71 -168 -190 -1 -33 1 -36 39 -45 22 -5 40 -16 41 -22 1 -7 2
-17 3 -21 2 -16 53 -32 115 -38 33 -3 86 -14 116 -25 44 -15 217 -49 252 -49
4 0 -4 -17 -18 -37 -27 -41 -26 -85 4 -114 19 -17 206 -80 317 -105 92 -21
282 -14 375 14 36 10 81 22 101 26 l36 6 6 -107 c7 -126 33 -229 84 -326 42
-79 119 -154 166 -161 95 -14 122 -16 107 -6 -8 5 -25 10 -38 10 -40 0 -130
49 -160 88 -72 91 -123 235 -137 383 -9 101 -2 135 33 144 81 20 352 161 487
254 398 273 606 479 711 705 49 107 68 215 62 360 -5 112 -7 127 -40 196 -44
97 -143 241 -207 304 -67 66 -77 52 -14 -18 65 -71 180 -246 209 -318 35 -84
38 -126 20 -227 -32 -172 -77 -279 -176 -416 -68 -95 -126 -150 -320 -311
-358 -295 -626 -457 -885 -534 -126 -38 -150 -42 -245 -42 -107 1 -214 13
-283 33 -37 10 -38 11 -22 29 24 26 15 69 -18 94 -21 16 -43 21 -88 21 -58 0
-58 0 -36 17 29 23 27 23 172 -16 145 -40 331 -62 445 -52 89 8 291 44 309 56
8 4 10 13 6 20 -6 9 -53 10 -204 4 -379 -15 -419 -13 -581 27 -80 20 -194 44
-255 54 -60 9 -113 20 -118 24 -4 4 1 15 12 25 17 16 31 16 162 6 79 -6 200
-22 269 -36 93 -19 140 -24 185 -20 123 13 264 26 399 35 126 10 278 40 299
61 19 17 -20 22 -106 11 -103 -12 -485 -42 -619 -48 -57 -3 -118 1 -175 12
-48 10 -146 21 -218 26 -71 5 -172 12 -222 15 -71 5 -93 10 -93 21 0 39 -31
72 -82 88 -28 8 -62 15 -75 15 -31 0 -29 12 5 32 34 20 90 25 117 11 11 -6 38
-15 60 -19 22 -4 49 -13 60 -19 45 -28 130 -40 275 -37 80 2 210 -2 290 -9
164 -13 192 -10 437 58 125 34 158 52 135 75 -10 10 -178 -15 -317 -48 -119
-28 -153 -30 -499 -26 -149 2 -196 6 -187 15 6 6 11 23 11 39 0 45 -34 59
-144 61 l-95 2 21 22 c46 49 105 67 223 67 61 0 135 -3 166 -8 41 -6 75 -4
130 8 54 13 90 15 134 9 75 -9 98 -7 160 17 28 11 88 28 134 40 63 15 133 45
270 117 102 53 253 131 335 174 150 78 174 94 164 104 -19 19 -199 -54 -445
-181 -165 -85 -187 -94 -235 -93 -92 1 -99 11 -25 43 35 15 75 38 88 52 45 48
15 148 -51 170 l-35 12 38 16 c21 8 71 25 110 36 40 12 108 43 152 69 131 79
228 129 270 140 50 13 143 -5 241 -47 142 -60 270 -79 350 -51 l39 13 -76 7
c-65 5 -102 17 -240 77 -90 39 -188 75 -217 80 -89 16 -181 -9 -282 -78 -33
-22 -61 -40 -64 -40 -4 0 -6 18 -6 40 0 109 -53 274 -133 412 -43 75 -70 144
-117 293 -12 39 -35 95 -51 126 -30 56 -130 184 -211 271 l-44 47 23 24 c13
12 25 34 28 47 3 14 20 38 40 53 61 50 44 102 -45 142 l-39 18 19 25 c33 41
26 80 -24 127 -23 23 -70 57 -102 75 -86 49 -259 174 -334 242 -86 78 -123 99
-263 147 -65 22 -123 44 -129 47 -6 4 14 20 43 37 161 93 209 214 115 289 -40
32 -72 41 -103 28z m71 -45 c40 -37 35 -76 -16 -131 -50 -54 -92 -77 -181
-100 l-65 -16 -117 40 c-64 23 -119 43 -122 45 -2 3 20 8 49 12 146 19 215 47
337 135 63 47 79 49 115 15z m617 -783 c63 -41 109 -87 109 -109 0 -11 -11
-30 -25 -43 -22 -21 -27 -22 -56 -10 -41 17 -129 104 -129 127 0 24 27 63 44
63 6 0 32 -13 57 -28z m65 -207 c111 -48 131 -65 118 -99 -8 -22 -31 -20 -37
3 -4 18 -57 39 -139 56 -21 4 -28 11 -28 29 0 43 8 44 86 11z m4 -82 c46 -15
56 -22 58 -44 2 -15 -5 -32 -15 -42 -17 -15 -25 -15 -88 -2 -51 11 -77 22 -98
44 -26 25 -28 31 -17 51 11 20 18 22 59 17 25 -3 71 -14 101 -24z m-301 -33
c25 -13 28 -56 5 -88 -17 -25 -75 -29 -154 -11 -50 11 -60 22 -60 61 0 45 33
60 117 55 39 -3 81 -10 92 -17z m-1160 -292 c-18 -29 -57 -89 -85 -134 -66
-100 -169 -317 -194 -406 -39 -142 -58 -323 -70 -693 -5 -159 -15 -335 -21
-390 -15 -127 -7 -235 20 -278 11 -18 33 -54 49 -82 16 -27 64 -83 106 -122
42 -40 76 -76 76 -79 0 -4 -6 -2 -12 4 -7 5 -78 35 -158 67 -290 115 -560 272
-648 378 -63 76 -127 210 -142 298 -23 134 -1 504 36 634 14 46 -16 -4 -40
-67 -52 -136 -70 -256 -70 -458 -1 -169 1 -190 22 -245 39 -104 40 -99 -1 -75
-92 55 -208 204 -236 305 -41 151 38 348 267 660 114 157 177 229 237 274 24
18 25 20 5 10 -52 -25 -140 -101 -226 -195 -49 -53 -113 -122 -142 -153 -59
-63 -173 -229 -202 -295 -11 -23 -25 -66 -31 -95 l-11 -53 -39 38 c-57 55 -99
169 -99 267 0 70 3 80 54 179 30 58 57 123 61 145 5 35 13 44 63 74 75 45 163
135 265 272 46 62 103 129 127 150 76 69 77 69 414 62 279 -7 310 -6 431 14
72 12 150 28 175 35 25 8 47 12 49 10 2 -2 -11 -27 -30 -56z m1775 -1329 c30
-35 34 -80 9 -105 -28 -27 -140 -75 -192 -81 -43 -5 -49 -3 -66 23 -10 15 -20
46 -23 69 l-4 41 62 33 c116 62 174 67 214 20z m-2034 -350 c0 -11 -11 -18
-32 -22 -18 -2 -34 -4 -36 -2 -1 1 1 23 4 49 l7 47 28 -27 c16 -15 29 -35 29
-45z m1148 -181 c17 -17 15 -45 -4 -52 -23 -9 -123 -7 -168 3 -53 13 -67 28
-42 47 25 18 196 20 214 2z m-307 -130 c40 -9 56 -19 70 -43 11 -16 19 -33 19
-37 0 -5 -47 -8 -104 -8 -119 0 -140 10 -115 57 23 42 51 49 130 31z m165
-119 c90 -23 29 -54 -87 -45 -106 9 -155 27 -132 49 11 11 171 8 219 -4z m356
-219 c77 -22 71 -80 -8 -80 -85 0 -128 36 -85 72 27 21 41 22 93 8z"/>
<path d="M2067 4970 c-28 -23 -173 -212 -230 -301 -19 -31 -52 -70 -73 -85
-114 -88 -143 -116 -194 -191 -69 -99 -100 -189 -100 -290 0 -40 4 -74 8 -77
4 -3 13 31 20 74 19 134 38 160 245 343 89 79 142 152 181 252 15 38 36 81 45
95 10 14 28 43 39 66 12 23 37 62 56 87 40 52 40 56 3 27z"/>
<path d="M2262 4832 c-18 -131 -52 -218 -147 -367 -147 -231 -185 -333 -185
-494 0 -154 80 -340 195 -451 l46 -45 -41 69 c-48 79 -79 158 -105 265 -16 65
-16 86 -6 168 14 114 36 183 106 328 67 139 120 261 129 300 15 60 32 248 26
284 -5 30 -8 22 -18 -57z"/>
<path d="M3454 4974 c-149 -22 -308 -90 -380 -162 -59 -60 -113 -139 -159
-232 -38 -80 -41 -103 -4 -43 66 106 184 244 230 268 49 26 200 45 355 45 168
0 159 -4 174 72 5 24 3 41 -4 47 -19 15 -128 18 -212 5z"/>
<path d="M3273 4619 c-55 -10 -224 -94 -266 -131 -11 -9 -27 -14 -36 -10 -14
5 -14 3 -2 -11 34 -42 115 -29 261 43 114 57 197 74 338 68 123 -5 192 4 117
16 -22 3 -79 13 -126 21 -92 16 -218 18 -286 4z"/>
<path d="M4170 4416 c0 -13 17 -44 38 -70 l37 -46 3 46 c4 56 -18 94 -53 94
-20 0 -25 -5 -25 -24z"/>
<path d="M3978 4413 c-27 -31 -38 -60 -38 -99 0 -31 2 -35 15 -24 24 20 75
102 75 122 0 23 -32 24 -52 1z"/>
<path d="M4260 4160 c8 -5 20 -10 25 -10 6 0 3 5 -5 10 -8 5 -19 10 -25 10 -5
0 -3 -5 5 -10z"/>
<path d="M4068 4143 c7 -3 16 -2 19 1 4 3 -2 6 -13 5 -11 0 -14 -3 -6 -6z"/>
<path d="M4118 4143 c7 -3 16 -2 19 1 4 3 -2 6 -13 5 -11 0 -14 -3 -6 -6z"/>
<path d="M4300 4147 c0 -3 12 -12 26 -22 15 -9 23 -12 20 -6 -7 11 -46 35 -46
28z"/>
<path d="M4012 4115 c-17 -14 -54 -53 -82 -88 -29 -34 -34 -42 -11 -17 23 25
62 64 87 88 50 46 54 57 6 17z"/>
<path d="M4400 4068 c41 -45 50 -53 50 -45 0 2 -21 23 -47 47 l-48 45 45 -47z"/>
<path d="M4058 3963 c7 -3 16 -2 19 1 4 3 -2 6 -13 5 -11 0 -14 -3 -6 -6z"/>
<path d="M4148 3963 c12 -2 30 -2 40 0 9 3 -1 5 -23 4 -22 0 -30 -2 -17 -4z"/>
<path d="M3960 3930 c-9 -6 -10 -10 -3 -10 6 0 15 5 18 10 8 12 4 12 -15 0z"/>
<path d="M4430 3936 c0 -3 14 -12 30 -21 17 -9 30 -13 30 -11 0 3 -13 12 -30
21 -16 9 -30 13 -30 11z"/>
<path d="M4253 3873 c9 -2 25 -2 35 0 9 3 1 5 -18 5 -19 0 -27 -2 -17 -5z"/>
</g>
</svg>
